<mxfile host="app.diagrams.net" modified="2022-12-15T02:28:12.037Z" agent="5.0 (Macintosh; Intel Mac OS X 10_15_7) AppleWebKit/537.36 (KHTML, like Gecko) Chrome/108.0.0.0 Safari/537.36" version="20.6.0" etag="OML4CyvTQ7Bwcs6uiXed" type="github">
  <diagram id="NAdIKX7xA23EpvT23ChW" name="第 1 页">
    <mxGraphModel dx="1234" dy="736" grid="1" gridSize="10" guides="1" tooltips="1" connect="1" arrows="1" fold="1" page="1" pageScale="1" pageWidth="827" pageHeight="1169" math="0" shadow="0">
      <root>
        <mxCell id="0" />
        <mxCell id="1" parent="0" />
        <mxCell id="l59deZJjHKC2-L2rrwCu-4" value="" style="rounded=1;whiteSpace=wrap;html=1;fontSize=14;dashed=1;" vertex="1" parent="1">
          <mxGeometry x="120" y="110" width="550" height="210" as="geometry" />
        </mxCell>
        <mxCell id="l59deZJjHKC2-L2rrwCu-3" value="&lt;font style=&quot;font-size: 14px;&quot;&gt;承载&lt;/font&gt;" style="edgeStyle=orthogonalEdgeStyle;rounded=0;orthogonalLoop=1;jettySize=auto;html=1;entryX=0;entryY=0.5;entryDx=0;entryDy=0;fontSize=18;" edge="1" parent="1" source="l59deZJjHKC2-L2rrwCu-1" target="l59deZJjHKC2-L2rrwCu-2">
          <mxGeometry relative="1" as="geometry" />
        </mxCell>
        <mxCell id="l59deZJjHKC2-L2rrwCu-1" value="&lt;font style=&quot;font-size: 18px;&quot;&gt;2k+社群&lt;/font&gt;" style="ellipse;whiteSpace=wrap;html=1;aspect=fixed;fillColor=#d5e8d4;strokeColor=#82b366;" vertex="1" parent="1">
          <mxGeometry x="230" y="180" width="110" height="110" as="geometry" />
        </mxCell>
        <mxCell id="l59deZJjHKC2-L2rrwCu-2" value="&lt;font style=&quot;font-size: 18px;&quot;&gt;20W用户&lt;/font&gt;" style="whiteSpace=wrap;html=1;aspect=fixed;fillColor=#ffe6cc;strokeColor=#d79b00;" vertex="1" parent="1">
          <mxGeometry x="440" y="180" width="110" height="110" as="geometry" />
        </mxCell>
        <mxCell id="l59deZJjHKC2-L2rrwCu-5" value="目前私域规模" style="text;html=1;strokeColor=none;fillColor=none;align=center;verticalAlign=middle;whiteSpace=wrap;rounded=0;dashed=1;fontSize=22;" vertex="1" parent="1">
          <mxGeometry x="310" y="130" width="160" height="30" as="geometry" />
        </mxCell>
        <mxCell id="l59deZJjHKC2-L2rrwCu-7" value="&lt;font style=&quot;font-size: 14px;&quot;&gt;服务&lt;/font&gt;" style="edgeStyle=orthogonalEdgeStyle;rounded=0;orthogonalLoop=1;jettySize=auto;html=1;entryX=0.5;entryY=1;entryDx=0;entryDy=0;fontSize=22;strokeWidth=3;strokeColor=#333333;" edge="1" parent="1" source="l59deZJjHKC2-L2rrwCu-6" target="l59deZJjHKC2-L2rrwCu-4">
          <mxGeometry relative="1" as="geometry" />
        </mxCell>
        <mxCell id="l59deZJjHKC2-L2rrwCu-11" style="edgeStyle=orthogonalEdgeStyle;rounded=0;orthogonalLoop=1;jettySize=auto;html=1;entryX=0.5;entryY=0;entryDx=0;entryDy=0;strokeColor=#333333;strokeWidth=1;fontSize=16;" edge="1" parent="1" source="l59deZJjHKC2-L2rrwCu-6" target="l59deZJjHKC2-L2rrwCu-8">
          <mxGeometry relative="1" as="geometry" />
        </mxCell>
        <mxCell id="l59deZJjHKC2-L2rrwCu-12" style="edgeStyle=orthogonalEdgeStyle;rounded=0;orthogonalLoop=1;jettySize=auto;html=1;entryX=0.5;entryY=0;entryDx=0;entryDy=0;strokeColor=#333333;strokeWidth=1;fontSize=16;" edge="1" parent="1" source="l59deZJjHKC2-L2rrwCu-6" target="l59deZJjHKC2-L2rrwCu-9">
          <mxGeometry relative="1" as="geometry" />
        </mxCell>
        <mxCell id="l59deZJjHKC2-L2rrwCu-13" style="edgeStyle=orthogonalEdgeStyle;rounded=0;orthogonalLoop=1;jettySize=auto;html=1;entryX=0.5;entryY=0;entryDx=0;entryDy=0;strokeColor=#333333;strokeWidth=1;fontSize=16;" edge="1" parent="1" source="l59deZJjHKC2-L2rrwCu-6" target="l59deZJjHKC2-L2rrwCu-10">
          <mxGeometry relative="1" as="geometry" />
        </mxCell>
        <mxCell id="l59deZJjHKC2-L2rrwCu-6" value="破解版企业微信" style="shape=process;whiteSpace=wrap;html=1;backgroundOutline=1;fontSize=22;fillColor=#dae8fc;strokeColor=#6c8ebf;" vertex="1" parent="1">
          <mxGeometry x="270" y="420" width="250" height="60" as="geometry" />
        </mxCell>
        <mxCell id="l59deZJjHKC2-L2rrwCu-8" value="提升运营能力" style="rounded=1;whiteSpace=wrap;html=1;fontSize=16;" vertex="1" parent="1">
          <mxGeometry x="20" y="550" width="150" height="60" as="geometry" />
        </mxCell>
        <mxCell id="l59deZJjHKC2-L2rrwCu-9" value="保障数据安全" style="rounded=1;whiteSpace=wrap;html=1;fontSize=16;" vertex="1" parent="1">
          <mxGeometry x="320" y="550" width="150" height="60" as="geometry" />
        </mxCell>
        <mxCell id="l59deZJjHKC2-L2rrwCu-10" value="节省成本" style="rounded=1;whiteSpace=wrap;html=1;fontSize=16;" vertex="1" parent="1">
          <mxGeometry x="620" y="550" width="150" height="60" as="geometry" />
        </mxCell>
      </root>
    </mxGraphModel>
  </diagram>
</mxfile>
